<?xml version="1.0" standalone="no"?>
<!DOCTYPE svg PUBLIC "-//W3C//DTD SVG 20010904//EN"
 "http://www.w3.org/TR/2001/REC-SVG-20010904/DTD/svg10.dtd">
<svg version="1.0" xmlns="http://www.w3.org/2000/svg"
 width="512.000000pt" height="512.000000pt" viewBox="0 0 512.000000 512.000000"
 preserveAspectRatio="xMidYMid meet">
<metadata>
Created by potrace 1.14, written by Peter Selinger 2001-2017
</metadata>
<g transform="translate(0.000000,512.000000) scale(0.100000,-0.100000)"
fill="#000000" stroke="none">
<path d="M3996 4161 c2 -2 -3 -19 -11 -38 -20 -47 -19 -98 5 -228 32 -175 23
-284 -29 -369 -31 -49 -147 -157 -163 -151 -8 3 -27 -6 -44 -20 -16 -14 -32
-25 -36 -25 -4 0 -36 -17 -70 -38 -35 -20 -81 -43 -103 -51 -43 -14 -228 -125
-246 -148 -6 -7 -16 -13 -21 -13 -6 0 -5 7 2 15 7 9 11 17 8 20 -8 8 -163
-131 -192 -173 -16 -23 -32 -39 -37 -36 -5 3 -6 -3 -2 -12 5 -12 3 -15 -6 -9
-10 5 -11 2 -6 -14 5 -16 3 -20 -8 -15 -18 6 -32 -27 -52 -121 -20 -95 -19
-127 11 -332 33 -228 31 -420 -4 -494 -20 -44 -72 -99 -93 -99 -6 0 -29 -9
-52 -21 -100 -49 -423 -39 -391 12 2 5 -11 15 -30 24 -64 31 -135 105 -193
204 -53 88 -123 268 -123 312 0 11 -4 19 -8 19 -5 0 -16 32 -25 70 -29 123
-65 192 -117 227 -73 49 -147 64 -322 64 -103 1 -152 -13 -233 -63 -64 -40
-95 -67 -138 -118 -19 -23 -46 -84 -53 -119 -4 -17 1 -79 11 -138 29 -176 7
-345 -46 -351 -33 -4 -59 -50 -45 -81 8 -19 7 -26 -9 -37 -10 -8 -30 -14 -43
-14 -13 0 -41 -15 -62 -33 -21 -18 -60 -44 -87 -57 -26 -13 -50 -26 -53 -30
-8 -12 -161 -58 -230 -71 -36 -6 -73 -15 -82 -20 -10 -5 -39 -9 -66 -9 -27 0
-57 -7 -70 -16 -18 -12 -29 -14 -50 -5 -41 16 -147 18 -164 3 -9 -7 -22 -10
-29 -8 -8 2 -54 7 -103 11 l-89 6 7 -143 c8 -179 29 -305 71 -434 143 -436
480 -775 913 -918 228 -75 137 -71 1577 -71 1199 0 1296 1 1378 18 296 60 543
192 752 402 208 207 333 439 398 735 20 92 21 126 24 1071 l4 977 -38 7 c-20
4 -51 14 -67 22 -21 11 -31 12 -34 4 -6 -17 -36 -13 -58 7 -33 30 -74 53 -84
47 -6 -3 -10 -16 -10 -28 -1 -20 -2 -20 -11 -4 -5 9 -15 17 -22 17 -7 0 -25
14 -42 31 -23 24 -31 27 -33 15 -5 -23 -11 -20 -49 24 -36 42 -53 44 -53 7 -1
-21 -2 -20 -25 8 -14 17 -25 36 -25 43 0 6 -4 12 -10 12 -5 0 -10 -7 -10 -15
0 -36 -21 -10 -38 47 -19 61 -20 62 -27 30 -14 -68 -45 -20 -45 73 0 31 -15
25 -22 -10 -2 -11 -7 27 -11 85 -7 99 -28 197 -45 209 -4 4 -20 26 -35 49 -36
55 -45 48 -17 -13 26 -57 22 -69 -5 -17 -22 42 -28 49 -127 152 -65 69 -69 71
-44 30 24 -40 18 -36 -57 40 -46 47 -82 83 -81 81z"/>
<path d="M3806 3393 c-6 -14 -5 -15 5 -6 7 7 10 15 7 18 -3 3 -9 -2 -12 -12z"/>
</g>
</svg>
